<svg xmlns:xlink="http://www.w3.org/1999/xlink" id="Laag_2" xmlns="http://www.w3.org/2000/svg" viewBox="0 0 206.45 134.6" width="206.45"  height="134.6" ><defs><style>.cls-1{fill:#222;}.cls-2{fill:#378ec3;}</style></defs><g id="Laag_1-2"><path class="cls-2" d="m63.83,71.58c.43,13.62-5.62,26.02-15.52,34.58-8.15,7.04-14.01,20.07-14.01,20.07,0,0-24.41-57.69-34.3-97.64,9.89-.31,41.62,6.38,41.62,6.38,0,0,21.72,21.1,22.21,36.61Z" fill="#378EC3"></path><path class="cls-2" d="m56.63,63.01c-.43-13.62,5.62-26.02,15.52-34.58,8.15-7.04,35.51-19.1,35.51-19.1,0,0-9.02,62.39-7.61,107.33-9.89.31-21.21-17.04-21.21-17.04,0,0-21.72-21.1-22.21-36.61Z" fill="#378EC3"></path><path class="cls-1" d="m123.85,24.35c-.14-.18-.15-.48-.05-.67l-.12-8.35c-.02-.4-.05-.75-.12-1.07.07-.19.01-.4.03-.7.02-.14-.05.03-.06-.05.08-.62-.08-1.5,0-2.07-.19-.69-.06-1.64-.32-2.06-.02-.67.02-1.69-.25-2.38.2-.36.98-.41,1.36-.27,1.23-.26,2.6-.07,3.64-.38.3.1.72-.03,1.13-.04.21,0,.46.14.7.08,1.07-.17,2.48.28,3.3.5.52.25,1.06.34,1.58.56.09.19.25.29.47.31.51.6.95,1.09,1.17,1.92.04,1.07-.06,1.99-.35,2.94-.09.35-.05.7-.18,1-.03.03-.11.03-.13.08-.02.06-.02.19-.02.22-.05.11-.24.12-.21.25-.21.03-.31.2-.44.34.9.24,1.38.89,2.06,1.29.17.29.37.47.46.76.09.37.35.74.42,1.19-.02.06-.08.08-.05.19q.03.13.09.24s-.08-.02-.08.03c.05.56,0,.97.08,1.5-.1.14-.17.38-.17.62-.17.38-.32.82-.46,1.25-.11,0-.1.17-.18.25,0,.03.03.05.06.08-.05.06-.16.03-.13.19-.11,0-.21.09-.26.22-.27.04-.33.39-.63.37-.1.11-.16.17-.29.23-.21.22-.41.45-.59.69-.42.26-1.11.47-1.61.7-.5.21-.98.28-1.51.46-.05.03-.03-.05-.08-.05-.35.01-.96.2-1.28.24-.21,0-.8.19-1.15.04-.8.22-1.85.04-2.92.16-.16,0-.51.1-.7-.05-.91,0-1.42.13-2.12.16-.3-.23-.32-.66-.09-.94Zm8.2-10.86c.08-.08.18-.14.29-.17.07-.16.29-.28.3-.49.04-.35.11-.78.09-1.13-.02-.56-.27-.69-.49-1-.11-.16-.17-.34-.34-.47l-1.2-1.08c-.27-.07-.65-.06-.83,0-.06-.05-.14-.05-.22-.05-.11-.02-.11.06-.19.06-.44-.15-.78.03-1.37-.03.21.48-.19,1.3,0,1.67-.16.11-.07.27-.06.46.05.64-.05,1.56.33,2.41.04.24.04.35.05.56,1.29-.07,2.43-.38,3.63-.72Zm.13,7.95s0-.08.05-.08c.22.1.47-.29.8-.22.04-.32.31-.44.35-.71.07-.3-.03-.78-.15-1.1-.06-.13-.24-.58-.29-.63-.03-.05-.08-.02-.11-.05-.08-.1-.15-.29-.26-.39-.28-.23-.77-.46-1.07-.61-.14-.08-.25-.18-.36-.2-.24-.05-.72.03-.94.03-.64.02-1.53.11-2.09.08.04.97-.02,2.34.38,3.13-.05.03-.13.03-.1.11.04.35.11.72.2,1.12,1.07-.2,2.55-.09,3.58-.48Z" fill="#222222"></path><path class="cls-1" d="m145.27,24.8c-.05,0-.05-.06-.04-.11-.43-.03-.83-.06-1.16-.22-.9.06-1.31-.1-2.35-.28-.69-.1-.54,0-1-.06-.16-.02-.27-.01-.46-.01-.16,0-.32-.02-.39-.14-.32-.05-.6.02-.76-.22.08-.37.36-.65.22-1,.42-.7.29-1.86.54-2.64.17-.08.14-.2.22-.38l.2-.08c.45.25,1.09.72,1.84.83.11.02.07.09.12.12.27-.15.94.29,1.54.22-.02-.03-.05-.03-.1-.04.14-.03.1-.47.14-.77.08-.59.07-1.26.15-1.8.09-.64.36-1.77.46-2.51.02-.13,0-.19.04-.29.08-.15.08-.4.11-.58.19-1.36.52-2.94.79-4.25-.29-.09-.96-.08-1.06-.37l-.25.05c-1.19-.25-.95-.57-2.33-.57-.19,0-.33.06-.47-.12.05-.16.06-.21.05-.37.03,0,.05.03.1.04-.18-.27-.08-.58-.02-.82-.06-.9.01-1.44,0-2.44.09-.07.19-.03.29.04,1.79.2,2.19.07,4.1.36,1.64.26,3.38.23,4.97.54.1.04.24.03.37.05,1.22.23,1.45-.28,2.62.24.16-.14.46.01.55.16l-.14.25c.07.09.03.17-.04.27.23.49-.14,1.01-.23,1.6-.02.11-.39,1.82-.58,2.17-.09.04-.2.05-.26.13-.3-.21-1.63-.34-2.04-.34-.13-.05-.07.1-.17.06,0-.03.01-.08-.02-.08-.58-.08-1.33-.16-1.88-.29-.24.94-.09,1.61-.26,2.78,0,.05.1.04.09.1.04.71-.14,1.39-.18,2.04-.03.62-.08,1.15-.08,1.75-.02.32-.27.53-.3.8,0,.05.08.04.07.06.03.14-.03.43-.06.62,0,.79.19,1.52-.02,2.22,1.28.32,1.69.54,3.2.37.11-.01,0,.03.02.08.13.05.19-.03.3-.01.09.15.29.26.43.39-.14.82-.27,1.15-.38,1.9-.31.31-.35.74-.52,1.17-.3.17-3.14-.23-3.71-.25-.4-.03-.73-.02-1.02-.09-.21-.06-.43-.22-.61-.09-.15-.13-.41-.14-.65-.17Z" fill="#222222"></path><path class="cls-1" d="m162.21,27.14c-.16-.01-.28-.13-.4.01-.69-.12-1.37-.21-1.87-.57h-.13s-.09-.09-.09-.09c-.59-.18-1.05-.49-1.54-.79-.57-.54-1.06-1.16-1.73-1.6-.1-.21-.23-.38-.45-.47-.31-.62-.85-.97-1.03-1.65-.28-.32-.18-.71-.38-1.07,0-.3-.09-.64-.15-.93-.05-.26-.11-.83-.13-1.28,0-.19.07-.36.08-.52.02-.84.07-1.73.22-2.64.08-.03.04-.14.18-.13,0-.08-.09-.04-.07-.13.07-.36.25-.7.32-1.11h.08c0-.3.21-.57.32-.82.14-.26.22-.51.35-.76.18-.32.43-.56.61-.9.15-.34.38-.5.59-.79.07-.09.11-.28.26-.32.11-.25.42-.37.53-.62.55-.19.71-.67,1.29-.83.02-.06.05-.09.09-.14.39-.12.8-.33,1.32-.51.05,0,.08.02.11.04.22-.26.71-.21,1.05-.27.08,0,.06.02.06.05.53-.35,1.26-.37,1.93-.39.32,0,.75-.02,1.05.03.36.07.71.31,1.1.24.07.15.27.03.37.21.39-.15.59.24.9.12.66.36,1.18.69,1.79,1.14.09.12.16.28.38.29.12.34.4.45.53.7h.11c.22.32.55.58.8.99,0,.05.08.02.11.04,0,.05.01.13-.01.16.55.94,1.15,1.75,1.35,2.94.17.09,0,.27.2.33-.15.15.1.42,0,.62.03.02-.04.11.09.1-.13.31-.07.68-.04,1.22,0,.35-.19.56-.07.9-.16.26-.05.57-.19.83.08.56-.08.82-.05,1.41-.42,1.2-.56,2.46-1.53,3.26-.02.08-.07.11-.06.17-.65.25-1,.75-1.51,1.12-.12.17-.29.35-.43.53-.73.21-1.23.64-1.88.89-.12.17-.31.14-.46.29.02-.06,0-.08-.04-.08-.33.25-.67.31-1.11.46.02-.06,0-.05-.01-.11-.05.03-.02.06-.04.11-.47.1-1.16.31-1.75.26-.27,0-.77.08-1.07.06Zm2.52-4.71c.39-.39.73-.8,1.29-1.08.43-.5,1.02-.89,1.42-1.44.05-.06.04-.14.09-.2.12-.15.3-.25.42-.39.09-.14.1-.36.22-.53.19-.29.46-.53.51-.78.15-.64-.09-1.39-.16-1.79-.02-.19-.12-.66-.27-.81.06-.22-.16-.52-.19-.84-.05,0-.11.01-.11-.02-.01-.65-.56-1.21-.89-1.85-.82-.65-2.18-1.24-3.5-.97-.91-.2-1.76.5-2.57.75-.15.12-.32.28-.59.33-.02.08-.07.11-.09.17-.89.52-1.43,1.6-1.6,2.54-.13.01-.07.06-.09.14,0,.03-.07.09-.07.11-.16.56.08,1.07.1,1.55l-.05.28c.03.78.34,1.45.47,2.25.5.89,1.01,1.73,1.66,2.56.22.09.59.24.83.43.08.02.1-.04.18-.05.02.21.25.11.37.15.25.06.39.15.58.13.08,0,.18-.07.24-.05.08,0,.09.07.17.06.59-.06,1.14-.47,1.63-.65Z" fill="#222222"></path><path class="cls-1" d="m121.61,46.57c-.03-.13,0-.13-.06-.24.12-1.08.07-2.71.18-3.84-.09-.48-.1-1.02-.16-1.66-.04-.7.03-1.48-.19-1.98-.05-1.4-.18-3.22-.29-4.83-.1-1.02-.22-2.2-.29-3.43,0-.43.07-.94-.1-1.18-.03-.08.05-.05.08-.08-.03-.08-.11-.16-.14-.24.03-.08.05-.19.1-.24.11-.03.13.02.16.08.64-.17,1.1.17,1.66-.08.16.11.48.02.59.18.11.02.08-.11.19-.08.78-.04,1.72-.11,2.52-.09.16,0,.19,0,.4-.06,1.12-.21,2.25-.17,3.49-.11.62.04,1.18.17,1.72.32.4.1.81.28,1.06.57.32.05.46.31.76.42v.11c.03.05.11.05.19.08.19.43.7.45.9.85.54.31.82.77,1.25,1.22.03.38.41.64.5,1.15.22.35.52.64.71.98.08.19.06.46.28.56-.03.03-.05.05-.08.06.22.29.23.83.5,1.01,0,.13-.08.35.09.37-.08.27.14.48.15.72,0,.08-.05.13-.05.19,0,.32.12.75.02,1.18.08.05,0,.08.06.16l-.08.27c0,.05,0,.13.06.16-.18.27-.07.62-.15.89-.03.05-.08.08-.08.14-.02.11.03.24,0,.38-.03.03-.08,0-.11.03-.03.08,0,.29-.05.46-.05.16-.18.33-.21.43-.02.13,0,.3-.02.43-.08.27-.29.49-.18.78-.02.35-.23.54-.42.87-.03.05,0,.13-.02.19-.26.41-.71.76-1,1.12-.08.11-.08.19-.16.27-.24.22-.59.28-.77.55-.16.06-.37.09-.43.25-.69.28-1.47.53-2.25.63-.4.06-.97-.01-1.37.24-.48,0-.99.26-1.52.37-.38.09-.81.01-1.07.18-1.29.02-1.91-.02-3.25.02,0,.03-.08.03-.11.08-.83-.12-1.93.11-2.58.04-.08.24-.37.14-.54.06-.17-.29-.06-.62.07-.86Zm9.5-3.8c.35-.09.64-.17.83-.36.67-.14,1.07-.53,1.41-.96.16.1.19-.19.37-.17.16-.27.15-.62.28-.92.13-.32.42-.62.39-1.03.26-.41.15-.97.19-1.59-.17-.48-.45-1.04-.67-1.71-.16-.11-.14-.4-.3-.48-.11-.48-.47-.85-.82-1.25-.14-.16-.33-.53-.55-.61.02-.16-.11-.19-.19-.27.08-.05-.14-.11-.08-.27-.27-.08-.27-.43-.68-.37-.84-.18-1.18-.12-2.12-.16-.19,0-.35-.08-.51-.07-.51-.02-1.05-.01-1.56.02-.56.04-1.07.04-1.53.24.12.72,0,1.67-.07,2.55-.02.27.11.48-.07.7.16.13.11.37,0,.54.14.21.06.54.01.78l-.02.48c.03.05.11.05.11.11-.02.11-.13.22-.13.35,0,.13.17.51,0,.64.13,1.26-.04,2.61-.05,4,.4,0,.78.2,1.26.04,0,.05-.03.11.03.11,1.1-.21,1.53.16,2.74.01.49.13,1.12-.23,1.71-.38Z" fill="#222222"></path><path class="cls-1" d="m140.05,47.42c-.05-.16.08-.13.14-.26,0-.08-.05-.14-.07-.22.21-.88.08-1.93.13-2.82.03-1.29.23-2.6.35-3.91v-.51c0-1.16-.06-2.28-.06-3.44,0-.83.07-1.69.12-2.52.04-.51.03-.99.07-1.48,0-.08.17-.29.01-.4.2-.34.05-.89.01-1.4-.02-.4.07-.72-.08-1,.14-.1.11-.27.09-.43.41-.1,1.29.14,1.78-.14.32.06.81,0,1.07.03.19.03.37.17.61.2.29.03.62-.04.88.1.25.76-.23,1.71-.09,2.5-.07.43-.19,1.26-.04,1.64-.24.85.05,2.1-.1,2.71,0,1.29-.21,2.84-.35,4.15-.04.32-.1.61-.13.94,0,.24-.15.45-.15.69-.06.32-.02.75-.03,1.1-.03.11-.06.19-.06.27.02.13.07.43-.07.62.15.33-.07.64.03.97-.09.35,0,.83.02,1.24.04.65.35.98.26,1.19-.09.24-.44.26-.71.28-.06.08-.16.08-.19.18-.7,0-1.21,0-1.86.14-.08.02-.08.08-.08.16-.56-.04-.99-.27-1.49-.58Z" fill="#222222"></path><path class="cls-1" d="m151.08,47.78c-.04-.16-.21-.09-.27-.37-.02-.05-.01-.19-.01-.22-.04-.67-.09-1.19-.19-1.76-.13-.57-.27-1.28-.31-1.96-.11-1.35-.25-3.05-.4-4.46-.02-.11-.1-.19-.12-.3-.02-.19.12-.58-.06-.84,0-.75-.21-1.52-.22-2.19-.02-.11-.06.05-.11.02-.02-.08.03-.11.09-.13-.11-.44-.24-1.01-.38-1.34-.11-.03.09-.18-.07-.14.11-.1-.02-.11.01-.24-.15-.25-.2-.69-.33-.83-.06-.38-.14-.73-.26-1.04-.02-.19-.02-.51-.23-.66.03-.05.06-.05.09-.1-.2-.23-.08-.52-.28-.72.15-.26-.17-.74-.04-1.13.14-.07.48.08.57-.05.24.07.58.17.78.05.32.02.72.15.96.19.29.02.52-.1.73-.06.16.04.34.1.53.17.24.07.5.25.79.32.29.07.59-.04.86.08.13.49.32.93.16,1.41.08.08.15.22.03.32.07.22.16.84.12,1.08l-.05-.03c.09.36.11.87-.02,1.24.03-.02.06-.05.08-.05-.07.78.05,1.43,0,2.23,0,.11-.09.1-.14.15.02.08.06-.08.14-.02.01.24-.06.48.17.68-.01.19.05.46.15.73.15.57.19,1.28.28,1.68,0,.46.24.88.18,1.41.11.41.09.76.12,1.22.02.06.05.06.13.06-.1.37.15.63.12,1.14.58-1.18,1.02-3.11,1.74-4.39,0-.05,0-.08-.05-.08.13,0,.07-.21.2-.2.15-.64.5-1.21.67-1.82.16-.47.22-.96.38-1.43.03-.11.15-.21.18-.31.03-.03-.02-.08-.02-.08.03-.05.08-.05.11-.07.06-.19.03-.43.22-.55-.13-.47.41-1.02.38-1.35.03-.05.11-.05.17-.1.3-.95.74-2,1.04-2.92,0-.05-.06.02-.05-.03-.02-.11.09-.1.07-.21.24.09.48.03.65-.04.06-.02.05.03.08.06,1.16-.09,2.42.04,3.6.14.02.08.07.11.12.17-.13.32-.3.52-.5.78-.03.08.05.08.02.14-.5.72-.7,1.76-1.22,2.43-.09.61-.55,1.1-.7,1.73-.2.12-.24.39-.3.57-.09.13-.2.23-.29.33-.31.63-.41,1.43-.84,1.97-.24.79-.82,1.56-.98,2.44-.03.03-.06.02-.11.02.01.22-.13.83-.25,1.09-.03,1.02-.77,2.16-1.11,3.24-.29.41-.43.89-.62,1.36-.03.02.02.08-.11.07.1.19-.1.34-.17.53.02.03.05.03.05.08-.19.47-.48.91-.56,1.28-1.54.18-2.89-.31-4.1-.19-.39-.27-.8-.18-1.25-.21Z" fill="#222222"></path><path class="cls-1" d="m165.3,48.5c-.19.04-.36.13-.63.08-.13-.09,0-.24-.09-.22-.13-.09.14-.07.15-.2-.08-.03-.06.05-.09.07.09-2.07.73-3.9.67-6.47.14-.39-.04-.81.12-1.12,0-.03-.08-.03-.05-.08.03-.08.09-.07.11-.07-.02-.03-.08-.06-.13-.06.04-.54.12-1.1.16-1.6,0-.08-.07-.11-.04-.19-.09-.55.13-1.23-.07-1.81.03-.02.06-.05.08-.05.04-.43-.15-.82.04-1.18.06-.13-.07-.09-.04-.17.1-.58.08-1.29.01-2.13.13-.29.08-.64.1-.93.01-.16.08-.29.09-.42-.02-.06-.1-.14-.09-.22.01-.13.22-.33.03-.37,0-.08.09-.07.07-.18-.05-.35-.22-.58-.26-.8,0-.11.14-.04.17-.15,1.03-.02,1.9.18,2.77.42.3-.11.56.07.85.1.91.08,1.97-.05,2.82.1.29.05.57,0,.81.01.11,0,.21.12.31.16.31.11.7,0,1.03-.05.1.09.37.06.64.03.93-.11,2.43-.02,3.12-.2.4.09.26.4.36.84.06.27-.15.47-.17.71-.02.24.23.45.11.66.02.06.12.2.11.25.02.08-.06.1-.1.18-.03.05.05.08.07.17,0,.27-.08.64-.05.89.01.16.06.25.05.41-.06.02-.08.05-.11.07-.16-.01-.26-.08-.34-.11-.89,0-1.27-.27-2.19-.24-.77-.2-1.71-.17-2.5-.34-.19-.04-.36-.16-.58-.18-.16-.01-.3.03-.46.02-.43-.04-.91-.13-1.35-.27-.1-.04-.75,0-1.42-.06.06,1.22.03,2.51.25,3.52.95.24,1.36.17,2.28.46.05,0,.13.04.11-.04.08,0,.02.08.07.09.54.04,1.02.06,1.49.18.74.2,1.69.14,2.45.31.87.21.07,1.16-.12,1.44-.12.21-.17.77-.39,1.1-.03.05-.12.12-.15.2-.17.36-.17.47-.76.42-.05,0-.02-.03-.08-.06-.79-.5-1.87-.18-2.94-.24-.91-.05-1.12-.15-1.73-.28-.02.29-.08.69,0,1.02-.11.02-.07.21-.06.35.1.79-.33,1.64-.27,2.32.01.19.04.44-.05.62.63.21.79.28,1.54.32,1.02.06,2.08.31,3.15.4,1.26.1,2.23.1,3.42.07.1.09.05.38.19.37-.06.02-.04.13-.12.1.22.23.13.71.3.97-.04.16,0,.27-.19.31,0,.62-.22,1.06-.53,1.47-.29-.02-.59-.08-.84.04-1.81-.26-3.99-.28-5.71-.42-.24-.02-.51.01-.73,0-.8-.07-1.57-.21-2.27-.19-.16.01-.36.13-.55.14-.46.02-.91-.13-1.4,0-.04-.14-.46-.01-.49-.2Z" fill="#222222"></path><path class="cls-1" d="m195.19,51.81c-.03.13-.08.4-.14.52-.17.02-.31.05-.37-.08-.35.12-1.01-.15-1.28-.04l-.04-.09c-.05-.01-.02.08-.07.07-.9-.27-1.93-.23-2.79-.41-.06-.1-.15-.33,0-.41-.07-.07-.11-.13-.21-.18,0-.55.02-1.15-.25-1.56l.03-.13c-.29-.85-.47-1.72-.91-2.49.1-.09-.12-.35-.12-.35-.02-.03.02-.08.02-.08-.02-.03-.09-.07-.14-.14-.15-.33-.29-.85-.47-1.17-.1-.19-.23-.49-.27-.69-.11,0-.26-.19-.3,0-.45-.2-.95-.17-1.36-.31-.33-.12-.59-.48-.99-.4.03.39-.07.73-.18,1.12.02.03.05.04.05.04,0,0-.03.02-.04.07-.12.33-.21,1.14-.3,1.58-.15.74-.23,1.52-.35,2.2-.06.32-.04.57-.16.9-.02.11.11.13.09.24-.12.06-.09.17-.17.29-.09-.07-.16-.03-.03.02-.24.23-.62-.32-.9-.16-.08.01-.04-.06-.12-.08-.39.03-.71-.04-1.04-.02-.36,0-.62-.18-.92-.19-.05-.01-.1.06-.15.05-.05-.01-.09-.07-.15-.08-.29-.06-.6-.04-.89-.07-.05-.04-.06-.1-.14-.11.04-.32.28-.68.12-.96.18-1.14.51-2.22.74-3.3.03-.13,0-.25.02-.38.05-.24.18-.46.22-.67.03-.13,0-.27.03-.4.06-.29.19-.51.22-.78.08-.53.36-1.19.49-1.85.2-1.08.47-2.29.61-3.6.2-2.04.56-4.02.68-6.06-.08-.13-.05-.17-.04-.34.23-.04.44.12.67.06,0,.03.13.03.14.11.24-.09.37.05.58.12.77.24,1.59.11,2.38.41.56.2,1.05.24,1.6.36.71.15,1.41.35,2.1.46.64.1,1.15.4,1.77.61.59.2,1.07.28,1.51.53.31.5.99.67,1.43,1.04.19.29.37.6.55.94.1.05.05-.13.15-.08.3.69.8,1.29.75,2.07.11.02.09.1.15.2.04.61-.07,1.25-.11,1.87,0,.11.05.17.05.28-.03.43-.4.85-.51,1.27-.29.98-.64,1.76-1.48,2.27-.22.12-.5.17-.78.31-.02.11-.27.11-.21.23-.52.25-1.2.25-1.71.47-.11.25.21.57.14.77.14.14.19.4.29.61.2.37.35.95.62,1.25-.05.1.06.12,0,.22.25.63.56,1.27.87,1.77-.03.02-.04.05-.04.07.16.17.17.25.17.5.41.52.41,1.32.89,1.78Zm-1.41-11.23c.23-.45.36-1.08.49-1.57-.11-.24-.03-.53-.22-.79-.21-.07-.3-.28-.49-.43-.24-.16-.76-.32-.94-.47-.41-.28-1.04-.41-1.57-.63-1.29-.51-2.51-.85-3.7-1.07-.18-.17-.58-.26-.85-.26-.1,1.43-.33,2.54-.47,3.71-.04.07.07.07.06.12-.27.49-.18,1.12-.29,1.67.3.14.56.06.86.1.63.02,1.2.28,1.84.38,1.04.16,2.04.23,2.96.28.22.02.42-.05.59-.07.78-.17,1.4-.4,1.74-.98Zm-4.74,6.07v.03s0-.03,0-.03Z" fill="#222222"></path><path class="cls-1" d="m124.62,69.59c-.08,0-.08.05-.16.01-.25-.18-.54-.34-.82-.5-.02-.06-.05-.08-.07-.11-.44-.17-.6-.59-1.12-.74l-.02-.08c-.78-.33-1.13-.96-1.66-1.46.06-.13-.19-.26-.29-.38-.03-.27-.23-.42-.35-.68-.08-.33-.05-.76-.35-1.03,0-.05.03-.08.04-.11-.14.04-.04-.19-.22-.23v-.24c.19-.12.53-.04.61-.3.81.26,1.7-.67,2.46-.77.03,0,.18.07.29.08.38.92.87,1.55,1.51,2.23.35.06.55.21.93.21,0,.05-.06.08,0,.11.22-.06.43-.02.67.08-.02-.11.51.07.83.04.37.06-.19-.02-.25.03.23.1.4.03.62.02.7-.02,1.56.05,2.21-.06.63-.11.98-.73,1.43-.99-.08-.3.19-.63.22-1.03,0-.3-.2-.48-.18-.72-.5-.45-1.1-.66-1.68-.89-.57-.26-1.14-.23-1.83-.37-1.24-.27-2.57-.51-3.66-1.06-.51-.34-.94-.75-1.39-1.14,0-.11-.06-.25-.22-.31-.38-.62-.85-1.39-1.02-2.02.02-.19.04-.54-.1-.74,0-.03.06-.02.08-.02-.09-.17,0-.43.02-.59-.01-.16-.03,0,.01-.16.07-.16.1-.5.16-.66.08-.34.26-.87.56-1.22.06-.02.14-.04.17-.09.13-.23.23-.49.38-.7.12-.12.32-.3.5-.44.18-.2.2-.2.43-.34l.25-.14c.23-.12.43-.34.68-.4.36-.13.76-.12,1.03-.37,1.36-.1,2.34-.26,3.66-.24.11,0,.06-.13.2-.09.05,0,.1.06.18.12.97.03,2.23.37,3.17.8.08.28.46.25.55.48.35.03.6.29.82.5.41.3.79.6,1.07,1.06-.03.08.12.23.21.37.05.06.03.27.13.41.08.28.3.59.38.89,0,.03-.06.05-.06.05-.02.21.23.53.24.69-.66.48-1.8.58-2.62,1-.08,0-.1-.09-.21-.1.02-.56-.48-.66-.45-1.12-.1-.12-.17-.2-.19-.37-.05,0-.13-.04-.14.02-.03-.3-.3-.62-.58-.83-.97-.32-2.3-.54-3.31-.38-.11.02-.13-.06-.18-.04-.16.01-.23.14-.38.05-1.25.17-1.43.39-2.03.72-.1-.06-.08,0-.16-.07-.08.02-.06.1-.07.18-.32-.03-.43.29-.42.48.39.22.64,1.08,1.14,1.23.34.11,1.42.44,1.73.57.65.27,1.32,0,1.91.32.26.16.4.41.6.29.01.16.26.13.39.19.23.13.48.36.78.39-.03.02,0,.05,0,.08.36.17.72.41,1.19.58-.11.07.13.04.02.11.73.3,1.24.94,1.66,1.43-.02.27.28.48.39.76.04.14.06.62.11.95.07.49-.03.97,0,1.51-.12.13-.06.35-.01.46-.03.02-.08.02-.08.05.03.57-.27,1.03-.54,1.6-.04.1-.35.62-.39.83-.04.11-.02.21-.02.29-.04.16-.21.28-.33.46-.15.2-.15.47-.43.58.02.08-.04.13-.04.21-.05,0-.06.08-.17.04.06.3-.4.24-.45.5-.82.09-1.18.9-2.01.86-.08.02-.14.07-.2.12-1.03.02-2.45-.01-3.59-.3-.08-.03-.11,0-.14.04-.62-.27-1.59-.05-2.06-.49Z" fill="#222222"></path><path class="cls-1" d="m135.91,69.89c-.04-.17.09-.13.16-.26,0-.08-.04-.14-.06-.22.26-.87.19-1.93.29-2.81.11-1.28.38-2.58.56-3.89l.04-.51c.04-1.16.05-2.29.12-3.44.04-.83.17-1.68.26-2.51.07-.51.08-.99.15-1.47,0-.08.18-.28.03-.4.22-.33.1-.88.09-1.39,0-.4.11-.72-.03-1,.14-.1.13-.26.12-.42.41-.07,1.28.21,1.78-.04.32.08.81.04,1.07.09.19.04.36.19.6.24.29.05.62,0,.88.15.21.77-.33,1.7-.23,2.49-.09.42-.26,1.24-.13,1.63-.29.84-.07,2.1-.25,2.7-.08,1.29-.37,2.83-.58,4.13-.05.32-.13.61-.18.93-.02.24-.17.44-.19.69-.08.32-.06.75-.09,1.1-.04.1-.07.18-.08.26.02.14.04.44-.1.61.13.33-.11.64-.03.97-.11.34-.04.83-.05,1.24,0,.65.29.99.2,1.2-.1.23-.45.23-.72.24-.06.08-.17.07-.2.17-.7-.03-1.21-.07-1.86.03-.08.02-.09.07-.09.15-.56-.07-.97-.32-1.45-.66Z" fill="#222222"></path><path class="cls-1" d="m146.91,70.12c-.33.01-.94-.22-1.35-.39.09-.17-.04-.47.16-.65.31-1.23.61-2.83,1.15-4.34.04-.05-.02-.06-.04-.06.24-.61.64-1.13.75-1.9.07-.48.36-1.08.32-1.41-.02-.03-.05-.04-.1-.05.11,0,.24-.22.11-.28.11-.11.21-.64.21-.86.45-1.39.53-2.55.82-3.7-1.77-.34-2.69-.39-4.5-.66-.05.1.07.07.08.13-.17-.09-.4-.06-.72-.12-.02-.03.02-.1-.06-.1.16-.52-.05-1.08.04-1.64.08-.53.12-1.1.16-1.31.03-.13.03-.02.11,0-.17-.5.05-1.06-.02-1.65.85.12,1.97.54,2.7.45.17.09.23.1.37.08.55.14,1.44.21,1.9.64.19-.13,1.05.08,1.44.19.07.04.05-.13.11-.14.13.05.33.29.4.17.08-.01.01.08.09.1.33-.01.53-.03.74.13.71,0,1.35.5,2.16.56.08-.01.15-.05.23-.06.41.03.98.28,1.31.16.72.09.75-.17,1.38-.04.05.01.12.08.17.09.1.02.23-.06.34-.07.16,0,.34.1.5.1.22.02.46-.1.65.05,0,.11-.06.43.03.53-.29.32.03.8-.27,1.18,0,.27-.15.19-.26.44-.26.58-.18,1.25-.5,1.76-.05-.01-.06.02-.09.04-.16-.14-.4-.17-.58-.23-.18-.06-.3-.28-.46-.29-.98-.04-.91,0-1.91-.2-.29-.06-.62-.05-.94-.11-.18-.04-.36-.1-.66-.14-.18.21-.1.47-.14.66.03,0,.08.02.08-.01.07.07-.05.1-.15.05-.04.46-.02.52-.12.99-.04.73-.32,1.69-.38,2.61,0,.14.06.26.03.36-.25,1.21-.58,2.4-.85,3.44.05.01-.03.16.08.15-.28.27-.15.98-.38,1.29.04.47-.12,1.26-.16,1.86-.01.19-.14.41-.11.66.01.08.07.18.08.29.03.53-.17.98-.19,1.47-.14,0-.57.13-.55,0-.08,0-.12.06-.21.09.04-.18-.23.06-.28-.11-.1-.02-.02.08-.07.07-.08-.02-.04-.06-.04-.09-.09.04-.42.16-.19.01-.08.01-.19-.01-.21.07q-.04-.09-.17-.09c-.04.07.07.07.12.08.55.11-1.62,0-2.17-.12-.05-.01-.04-.06-.03-.12Z" fill="#222222"></path><path class="cls-1" d="m168.69,72.2c-1.34-.06-2.98-.19-4.42-.34-.59-.05-1.14-.26-1.7-.25-.37-.06-.87-.23-1.27-.29-.53-.07-.97.03-1.37-.11-.1-.04-.21-.12-.33-.19-.1-.04-.27-.02-.34-.08-.08-.03-.17-.2-.39-.14-.01-.16-.2-.18-.27-.32.19-.39.31-.86.38-1.32,0-.05-.04-.14-.04-.19.03-.35.14-.72.2-1.06.06-.45.03-.97.07-1.48.05-.89.18-1.9.22-2.65.01-.16.08-.29.09-.4.03-.32,0-.75.12-1.1-.11-.36.18-.82.07-1.18.06-.05.06-.13.12-.18-.04-.87.11-1.66.26-2.54.06-.45.08-.94.11-1.36.06-.67.13-1.58.05-2.21.16-.66-.06-1.54-.02-2,.13.01.3-.08.4.09.25-.11.54.02.73-.02.2.15.46.28.74.17.05.03.04.11.12.12.38-.02.61.08.95-.08.26.13.58.1.99.11.46.04.96.13,1.47.15.59.05,1.26.02,1.91.08.13.01.29.13.45.12.56.05,1.25-.11,1.64,0,.24.05.65,0,.91.02.11,0,.21.07.29.08.62.05,1.14-.07,1.7.28-.05-.06,0-.05.06-.08.05.08.46.04.65.24-.04.1,0,.3-.04.43-.04.16-.19.33.02.46,0,.05-.08.05-.12.1,0,.11.07.17.09.25-.06.1-.18.17-.24.3.04.52-.07.88-.38,1.32-.57,0-1.35-.33-1.99-.33-.16.01-.05,0-.24-.05-.26-.08-.67-.06-.96-.11-.11,0,0-.03-.02-.11-.46.04-.94-.02-1.32.03-.62,0-1.35.02-2.1-.07-.7-.06-1.4-.33-2.01-.11,0,.03,0,.05-.03.05.17.2-.11.4.05.68-.06.13-.14.42.04.49-.11,0-.04.19-.12.21,0,.94-.13,1.55-.15,2.47,1.31-.16,2.9.16,4.27-.19.39.11.64.08,1.01.22.03,0-.02-.03,0-.08.31.19.86.07,1.13.39-.34.56-.28,1.14-.57,1.7.02.03.02.11.1.09,0,.05-.13-.01-.14.04.03.3-.07.48-.14.66-.08.32.19.61.06.84-.17.09-.38,0-.42-.17-.33.08-.5-.18-.76-.22-.42-.12-.96-.11-1.42-.06-.24,0-.47.1-.74.13-.16-.01-.35-.06-.51-.04-.65.03-1.31.19-1.97,0-.08.96-.27,2.56-.15,3.41-.16.34-.1.61-.11,1.04.73.03,1.43.01,2.2.1.78.06,1.59.05,2.39.12.32.05.75.09,1.1.09.62.02,1.25-.17,1.82-.2.11-.04.2-.09.28-.17.42.17.79-.15,1.14.23.11.6-.1,1.15.27,1.56-.09,1.04.5,1.79.5,2.74-.06.1-.2.12-.26.19-.11.02-.15-.15-.26-.13-.14.37-.73.02-1.27,0-.43,0-.91-.13-1.36-.14-.21-.02-.44.07-.68.08-.16-.01-.37-.11-.56-.13Z" fill="#222222"></path><path class="cls-1" d="m174.68,72.31c-.04-.17.09-.13.16-.26,0-.08-.04-.14-.06-.22.26-.87.19-1.92.29-2.81.11-1.28.38-2.58.56-3.89l.04-.51c.04-1.16.05-2.29.12-3.44.04-.83.17-1.68.26-2.51.07-.51.08-.99.15-1.47,0-.08.19-.28.03-.4.22-.33.1-.88.09-1.39,0-.4.11-.72-.02-1,.14-.1.13-.26.12-.42.41-.07,1.28.21,1.78-.04.32.08.81.04,1.07.09.18.04.36.19.6.24.29.05.62,0,.88.15.21.77-.33,1.7-.23,2.49-.09.42-.27,1.24-.14,1.63-.28.84-.07,2.1-.25,2.7-.08,1.29-.37,2.83-.58,4.13-.05.32-.13.61-.18.93-.02.24-.17.44-.19.69-.08.32-.06.75-.09,1.1-.04.1-.07.18-.08.26.02.14.04.43-.1.61.13.33-.11.64-.03.97-.11.34-.04.83-.05,1.24,0,.65.29.99.2,1.2-.1.23-.45.23-.72.24-.06.08-.17.07-.2.17-.7-.03-1.21-.07-1.86.03-.08.02-.09.07-.09.15-.56-.07-.97-.32-1.45-.66Z" fill="#222222"></path><path class="cls-1" d="m185.35,73.02c-.21-.04-.42.02-.68-.17-.14-.25.29-.6.13-.85.27-.74.43-1.39.74-2.48.37-1.21.7-2.4.92-3.59-.02-.06.04-.05.09-.04.01-.05-.08-.02-.07-.07.23-.97.47-1.85.65-2.69.06-.29.06-.54.09-.83.17-1.31.55-2.6.77-4.04-1.02-.11-1.88-.59-2.93-.54-.11,0-.22,0-.3.1-.27-.17-.68-.17-.96-.15-.12.03-.4-.06-.59-.04-.28.02-.49.23-.64-.08-.1-.19.05-.48.11-.8.03-.16-.03-.36.01-.57.06-.26.15-.57.2-.81.02-.08-.02-.17,0-.22,0-.03.15-.08.15-.19-.01-.19-.13-.41.05-.48-.09-.1.01-.19-.04-.31.21-.23.81.09,1.04-.11-.09.15.05.01.06.1.35.16.74.02,1.13.1.13.03.25.13.41.14.14,0,.25-.03.39-.03.5,0,.49.13.99.24.39.08.79.14,1.19.22,1.45.28,3.08.76,4.79.98,1.2.14,1.78.43,2.9.58.35.05.74,0,1.03.08.28.09.49.27.79.3.09.76-.46,1.27-.32,1.91-.2.15-.26.44-.35.72-.15.44-.36.94-.49,1.3-.06.18.06.51-.22.53-.11,0-.12-.08-.25-.13-.2-.1-.47-.1-.76-.19s-.53-.22-.73-.32c-1.07-.53-1.82-.6-2.69-.9-.3.4-.91.82-.7,1.5.11.38-.18.7-.28,1.07-.22.78-.29,1.75-.56,2.38,0,.08.05.15.06.23-.13.6-.2,1.19-.32,1.77,0,.03-.07.09-.08.12-.03.16,0,.36,0,.55-.02.22-.11.41-.13.6,0,.3,0,.55,0,.91,0,.14-.09.28-.09.45-.03.41-.15,1.09-.18,1.64-.02.22.07.43-.07.62.15.09-.04.07.09.1-.1.2-.02.35-.04.57-.02.35-.19.76-.16,1.04.01.2.15.31.18.45-.18.07-.17.16-.33.26-.06.04-.18-.06-.28-.09-.61.15-1.55-.22-2.6-.44-.18-.04-.35-.02-.5-.08-.26-.08-.41-.25-.59-.32Z" fill="#222222"></path><path class="cls-1" d="m123.7,96.08c-1.64-.5-2.99-1.51-4.21-2.36v-.09c-.16-.16-.39-.27-.53-.43-.03,0,0-.09,0-.09-.03-.03-.09,0-.12,0-.14-.16-.47-.52-.57-.71-.03-.03.04-.06.04-.06-.08-.13-.23-.17-.31-.27-.1-.19-.11-.46-.34-.57-.06-.33-.33-.72-.51-1.03-.06-.36-.25-.65-.4-.96.02-.3-.03-.66-.19-.95-.02-.54-.08-1.62-.05-2.34.2-.64.24-1.45.43-2.24,0-.09-.12-.04-.14-.1.13-.11.17-.26-.03-.3.05-.27.4-.51.33-.69.15-.05.18-.4.19-.49,0-.06.12-.02.13-.08.01-.15.11-.2.03-.33.03-.03.06-.06.12-.05.19-.88.61-1.27.85-2,.33-.33.5-.65.61-1.21.75-.78,1.31-1.75,2.29-2.27.43-.53,1.21-.47,1.84-.81.06.03.12.04.21.05.22-.1.55-.1.91-.13.09.04.04-.12.16-.08,0-.03-.03-.03-.03-.03-.05-.06.24.05.31-.06-.02-.09-.09.05-.18-.01.06-.06.13-.11.25-.1,0,.06-.03.06-.04.09.12-.02.19-.13.34-.12-.06.05.02.09.05.15,0-.09.22-.1.07-.14.34-.09.52-.08.87-.05.03,0,0-.06.04-.09.54-.01.86.13,1.2,0,.08.1.36.39.49.22.06.03.05.06.02.12.77.09,1.42.57,2.22.75.28.17.65.44,1.04.51.54.37.94.65,1.54.94v.12c.48.22.71.66,1.14.91,0,.06.05.09.05.15.43.25.57.77.96,1.07-.01.15.08.19.16.22,0,.03,0,.06-.04.06.48.7.47,1.57,1.08,2.19-.03.36.29.44.2.86.02.06.05.12.17.1,0,.96.47,1.93.48,2.89.01.18-.16.44-.02.57-.03.03-.09.05-.18.04.03.03.09.04.12.04-.09.35-.05.96-.37,1.26-.33,1.14-.82,1.88-1.2,2.93-.56.64-.76,1.59-1.35,2.14,0,.09-.07.11-.05.24-.19.16-.44.26-.58.52-.38.21-.7.45-1.05.72-.03,0-.03.03-.04.09-.65.25-1.35.43-1.89.77-.58.13-1.03.12-1.56.35-1.52.2-3.26.66-4.82.23-.08-.07,0,.09-.12.05v-.09Zm2.58-4.37c.98-.25,2.23-.5,2.98-.86.09-.02.19-.08.28-.16.21.05.4-.12.49-.17.53-.29,1.4-.57,1.67-.94.14-.23.33-.78.45-1.13.53-1.31.64-2.67.75-3.96.09-1.04-.63-2.15-1.45-2.79-.2-.08-.38-.15-.49-.28-.41-.09-.79-.24-1.2-.37-.41-.15-.86-.46-1.3-.59-.23-.08-.53-.1-.83-.16-.89-.16-1.58-.52-2.33-.43,0-.03,0-.06-.05-.06-.03,0-.06,0-.03.03-.03.03-.15.02-.13.11-.29-.08-.61.1-.75.33-.21.04-.29.25-.48.32.02.12-.19.07-.04.18-.82.47-1.5,1.13-2.02,1.96-.23.64-.56,1.33-.71,2.07-.21,1.03-.1,1.91,0,2.91.04.63,0,1.38.32,1.92-.07.11,0,.12-.02.24.11.1.16.25.27.32.51.37,1.43.78,2.01,1.07.34.18.69.3.89.43.62.11,1.28.14,1.71.02Z" fill="#222222"></path><path class="cls-1" d="m140.62,95.61c-.36.1-.68.29-.98.14-.07-.54.13-1.86.08-2.66.09.03,0-.27-.01-.51-.05-.63.11-1.53.01-1.91.09.03-.03-.18.12-.12-.16-.47-.14-.92-.18-1.4-.01-.45.1-.87.12-1.23,0,0-.18-.2,0-.21-.08-.72,0-1.32-.03-2.3-.03-.06.06-.06.09-.06-.18-.11-.07-.51-.08-.72,0-1.08-.14-2.09-.26-3.04-.04-.39.01-.78-.03-1.17-.13-1.52-.31-3.04-.54-4.8.03-.03.06-.06.12-.06-.12-.12-.13-.24-.04-.36,0-.12-.15-.18-.04-.3.12-.03.18.06.27.08.21-.12.48-.04.75-.05.54-.01,1.13-.12,1.67-.04.15.03.24-.04.39-.04.18,0,.36.08.54.08,1.05,0,2.27-.24,3.38.04.38-.19.96-.05,1.55-.07.15,0,.33.08.6.1.24.05.51-.04.75-.02.18.03.33.14.48.17.51.08.87.16,1.23.24.72.22,1.39.53,2.08.82.31.35.73.55,1.12.78,0,.15.15.12.16.27.52.35.95.78,1.32,1.25.06.18.07.27.25.38.29.83.31,1.85.51,2.59-.1.66.05,1.88-.26,2.7-.09,0-.06.15-.18.12,0,.03.06.03.09.03-.08.42-.31.88-.39,1.27-.15.12-.29.28-.29.49l-.21.09c0,.12-.08.18-.11.3-.58.52-1.11,1.13-1.88,1.45-.06,0-.03.06-.06.12-.5.16-.83.41-1.21.6-.12-.03-.33,0-.42-.08-.86.2-1.66.46-2.53.57-1.07.18-2.09.2-3.22.32-.32.19-.77.17-1.13.15-.13.84.04,1.49,0,2.24,0,.09-.03.06-.09.03.12,1.37.03,2.48.24,3.58-.09,0-.15,0-.15.12-.45-.05-.59.13-.99-.06-.03.18-.33.1-.33,0-.65.26-1.64.25-2.09.11,0,.15-.18.06-.36.13,0-.09.15-.06.15-.15Zm9.09-10.63c.17-.18.62-.1.83-.32.39,0,1.01-.29,1.34-.39.18-.99.87-2.17.75-3.4-.07-.54-.38-.92-.57-1.33-.94-.48-1.91-1-3.1-1.06-.03-.15-.45-.11-.69-.1-.27-.02-.57-.11-.9-.1-1.23.03-2.42-.03-3.26.05-.02.42.17.68.03,1.11,0,0-.03-.03-.03,0l.09.09c-.08.21-.05.39-.05.57.05,1.91.15,3.61.19,5.26.54.02,1.41.08,2.21,0,.92-.2,2.15-.2,3.16-.38Z" fill="#222222"></path><path class="cls-1" d="m160.98,96.76c-.07-.11-.32-.22-.44-.4-.15-.03-.1-.08-.23-.05.02-.09-.28-.43-.45-.46-.38-.51-1.12-.78-1.32-1.41-.18,0-.16-.12-.23-.2-.04-.25.24-.28.16-.48.46-.3.67-.99,1.22-1.15.04-.18.14-.22.25-.31-.03-.16,0-.12.06-.29.32.07.46-.42.82-.41-.03-.16.04-.21.08-.38.12,0,.25,0,.38.08.08.05.17.37.21.44.02.04.23.05.02.04.13.12.48.19.49.44.75.34,1.23.84,1.83,1.33.52-.01,1.05.68,1.45.64.06-.02.27-.13.14-.22.07-.05.16-.06.21-.11.48-.82.92-1.46,1.12-2.45.03-.27.08-.5.1-.77.3-1.71.66-3.28,1.09-4.9-.02-1.07.4-2.21.46-3.23,0-.15-.03-.13.03-.27.09-.29.15-.73.22-1.02.2-1.12.48-2.16.51-3.28.25-.31.81.08,1.04-.03,0,.03-.06.02-.07.05.31,0,1.04.16,1.61.19.18,0,.38-.07.53-.04.09.02.19.13.3.19.32.07.77-.02.86.12.09.14.05.35.22.41-.09.56-.29,1.22-.37,1.78,0,.12.07.23.05.35-.04.18-.14.37-.14.52-.06,1.02-.45,2.01-.6,3.02-.08.38-.19.75-.23,1.08-.05.39-.04.76-.14,1.1-.24,1.02-.57,1.99-.71,2.94-.05.08-.09.16-.17.24,0,.18,0,.28-.09.41.02.06.12.02.1.08-.28.58-.26,1.1-.54,1.69.06.16,0,.43-.12.56-.03,1.15-.35,3.25-1.26,4.41-.18.12-.37.29-.47.51-.27.25-.64.45-1.04.45-.37.01-.64.02-.88.27-.91,0-1.92.12-2.66-.41-1.13-.15-2.18-.79-3.38-1.05Z" fill="#222222"></path><path class="cls-1" d="m185.75,98.1c-1.5.02-3.32-.02-4.93-.09-.66-.02-1.28-.21-1.91-.17-.42-.04-.98-.2-1.43-.24-.6-.04-1.08.09-1.52-.04-.12-.03-.24-.12-.38-.19-.12-.03-.3,0-.39-.07-.09-.03-.2-.21-.45-.13-.03-.18-.23-.19-.32-.34.19-.44.29-.98.33-1.49,0-.06-.06-.15-.05-.21,0-.39.11-.8.15-1.19.04-.51-.03-1.08-.02-1.64,0-.99.08-2.12.07-2.96,0-.18.07-.33.07-.45,0-.36-.04-.84.06-1.22-.14-.39.14-.92,0-1.31.06-.06.06-.15.12-.21-.1-.96.02-1.85.13-2.84.04-.51.03-1.05.04-1.52.02-.75.04-1.76-.09-2.45.14-.74-.17-1.71-.16-2.22.15,0,.33-.11.45.07.27-.14.6-.02.81-.07.24.16.53.28.83.14.06.03.06.12.15.12.42-.05.69.05,1.05-.15.3.13.66.08,1.1.06.51.01,1.07.09,1.64.07.66.02,1.41-.06,2.12-.04.15,0,.33.13.51.1.63.02,1.38-.21,1.83-.1.27.04.72-.04,1.02-.04.12,0,.24.07.33.07.69.02,1.26-.15,1.91.2-.06-.06,0-.06.06-.09.06.09.51.01.74.23-.03.12.02.33-.01.48-.03.18-.19.38.05.51,0,.06-.09.06-.12.12,0,.12.09.18.11.27-.06.12-.18.21-.25.35.08.57-.02.99-.33,1.49-.63.04-1.52-.28-2.24-.23-.18.02-.06,0-.27-.04-.3-.07-.75-.02-1.07-.06-.12,0,0-.03-.03-.12-.51.08-1.05.04-1.47.11-.69.04-1.5.11-2.33.06-.78-.02-1.58-.28-2.24,0,0,.03,0,.06-.03.06.2.21-.1.45.1.75-.06.15-.13.48.08.54-.12,0-.03.21-.12.24.06,1.05-.04,1.73,0,2.75,1.44-.26,3.23-.01,4.73-.48.45.1.72.05,1.13.18.03,0-.03-.03,0-.09.35.19.96.02,1.28.36-.34.65-.24,1.28-.53,1.93.03.03.03.12.12.09,0,.06-.15,0-.15.06.05.33-.04.54-.11.74-.07.36.25.66.13.93-.18.12-.42.02-.47-.16-.36.11-.56-.16-.86-.2-.48-.1-1.08-.06-1.58.02-.27.02-.51.14-.81.19-.18,0-.39-.04-.57-.01-.72.07-1.44.29-2.18.13-.03,1.08-.13,2.87.06,3.8-.16.38-.08.69-.06,1.16.81-.01,1.59-.08,2.45-.03.87.02,1.76-.05,2.66-.02.36.04.84.05,1.23.03.69-.01,1.38-.27,2.01-.34.12-.06.21-.11.3-.2.47.16.87-.22,1.28.18.16.66-.03,1.28.41,1.71-.03,1.17.67,1.96.73,3.01-.06.12-.21.14-.27.23-.12.03-.18-.15-.3-.13-.13.42-.81.07-1.41.08-.48.02-1.01-.08-1.52-.07-.24,0-.48.11-.75.13-.18,0-.42-.1-.62-.1Z" fill="#222222"></path><path class="cls-1" d="m116.58,119.42c-.14-.21-.14-.54-.01-.75l.45-9.28c.01-.45,0-.84-.06-1.2.1-.21.04-.45.08-.78.03-.15-.06.03-.06-.06.14-.68.01-1.67.15-2.3-.16-.78.05-1.82-.21-2.31.02-.75.14-1.88-.11-2.66.25-.38,1.12-.39,1.53-.2,1.38-.2,2.9.1,4.07-.16.33.13.81.02,1.25.03.24,0,.5.19.77.14,1.2-.12,2.74.49,3.63.78.56.31,1.15.45,1.71.73.08.21.26.34.5.37.52.7.98,1.28,1.17,2.21-.03,1.19-.21,2.21-.59,3.24-.13.39-.11.77-.27,1.1-.03.03-.12.03-.15.09-.03.06-.04.21-.04.24-.06.12-.27.11-.25.26-.24.02-.36.2-.52.35.98.32,1.47,1.08,2.2,1.58.17.33.37.55.46.88.08.42.34.85.38,1.35-.03.06-.09.09-.07.21q.03.15.08.27s-.09-.03-.09.03c.01.63-.06,1.07-.01,1.67-.12.15-.22.41-.23.68-.22.41-.41.89-.6,1.36-.12,0-.12.18-.22.26,0,.03.03.06.06.09-.06.06-.18.03-.15.21-.12,0-.24.08-.3.23-.3.02-.4.41-.73.37-.12.12-.18.17-.33.23-.25.23-.49.47-.71.73-.49.26-1.27.44-1.84.67-.57.19-1.11.24-1.71.4-.06.03-.03-.06-.09-.06-.39,0-1.08.15-1.44.17-.24,0-.9.16-1.28-.03-.9.19-2.06-.08-3.26-.02-.18,0-.57.08-.77-.11-1.01-.06-1.58.05-2.36.03-.32-.28-.31-.75-.03-1.05Zm9.45-2.65s0-.09.06-.09c.24.13.55-.28.9-.19.07-.36.37-.47.44-.77.1-.33.02-.87-.09-1.23-.06-.15-.22-.66-.28-.72-.03-.06-.09-.03-.12-.06-.09-.12-.14-.33-.26-.46-.29-.28-.82-.56-1.15-.75-.15-.09-.26-.22-.38-.25-.27-.07-.81-.02-1.05-.03-.72-.02-1.7.02-2.33-.06-.03,1.08-.19,2.6.21,3.5-.06.03-.15.03-.12.12.02.39.07.81.15,1.26,1.2-.15,2.84.07,4.01-.28Zm.41-8.84c.09-.09.21-.14.33-.17.09-.18.34-.29.37-.53.07-.39.17-.86.18-1.25.02-.63-.25-.78-.48-1.15-.11-.18-.17-.39-.34-.55l-1.25-1.29c-.3-.1-.71-.11-.93-.05-.06-.06-.15-.06-.24-.07-.12-.03-.12.06-.21.05-.47-.19-.87-.02-1.52-.13.2.54-.31,1.43-.11,1.85-.18.11-.1.3-.1.5.01.72-.16,1.73.2,2.7.02.27.02.39.01.63,1.43,0,2.73-.26,4.08-.55Z" fill="#222222"></path><path class="cls-1" d="m141.26,119.26c-1.64-.5-2.99-1.51-4.21-2.36v-.09c-.16-.16-.39-.27-.53-.43-.03,0,0-.09,0-.09-.03-.03-.09,0-.12-.01-.14-.16-.47-.52-.57-.71-.03-.03.04-.06.04-.06-.08-.13-.23-.17-.31-.27-.1-.19-.11-.46-.34-.57-.06-.33-.33-.72-.51-1.03-.06-.36-.25-.65-.4-.96.02-.3-.04-.66-.19-.95-.02-.54-.08-1.62-.05-2.34.2-.64.24-1.45.43-2.24,0-.09-.12-.04-.14-.1.13-.11.17-.26-.04-.3.05-.27.4-.51.33-.69.15-.05.18-.4.19-.49,0-.06.12-.02.13-.08.01-.15.11-.2.03-.33.03-.03.06-.05.12-.05.19-.88.61-1.27.85-2,.33-.33.5-.65.61-1.21.75-.78,1.31-1.75,2.29-2.27.43-.53,1.21-.47,1.84-.81.06.03.12.04.21.05.22-.1.55-.1.91-.13.09.04.04-.12.16-.08,0-.03-.03-.03-.03-.03-.05-.06.24.05.3-.06-.02-.09-.09.05-.18-.01.06-.05.13-.11.25-.1,0,.06-.03.06-.04.09.12-.02.19-.13.34-.12-.06.05.02.09.05.15,0-.09.22-.1.07-.14.34-.09.52-.08.87-.05.03,0,0-.06.04-.09.54-.01.86.13,1.2,0,.08.1.36.39.49.22.06.04.06.06.02.12.77.09,1.42.57,2.22.75.29.17.65.44,1.04.51.54.37.94.65,1.54.94v.12c.48.22.72.66,1.14.91,0,.06.05.09.05.15.43.24.57.77.96,1.07-.01.15.07.19.16.22,0,.03,0,.06-.03.06.48.7.47,1.57,1.08,2.19-.03.36.29.44.2.86.02.06.05.12.17.1.01.96.47,1.93.48,2.89.01.18-.16.44-.02.57-.03.03-.09.05-.18.04.03.03.09.04.12.04-.09.35-.05.96-.37,1.26-.33,1.14-.81,1.88-1.2,2.93-.56.64-.76,1.59-1.35,2.14,0,.09-.07.11-.05.24-.19.16-.44.26-.58.52-.38.21-.7.45-1.05.72-.03,0-.03.03-.04.09-.65.25-1.35.43-1.89.77-.58.13-1.03.12-1.56.35-1.52.2-3.26.66-4.82.23-.08-.07,0,.09-.12.05v-.09Zm2.58-4.37c.98-.25,2.23-.5,2.98-.86.09-.02.19-.07.28-.16.21.05.4-.12.49-.17.53-.29,1.4-.57,1.67-.94.14-.23.33-.78.45-1.13.53-1.31.64-2.67.75-3.96.09-1.04-.63-2.15-1.45-2.79-.2-.08-.38-.15-.49-.28-.41-.09-.79-.25-1.2-.37-.41-.15-.86-.46-1.3-.59-.23-.08-.53-.1-.83-.16-.89-.16-1.58-.52-2.33-.43,0-.03,0-.06-.05-.06-.03,0-.06,0-.03.03-.03.03-.15.02-.13.11-.29-.08-.61.1-.75.33-.21.04-.29.25-.48.32.02.12-.19.07-.04.18-.82.47-1.5,1.13-2.02,1.96-.23.64-.56,1.33-.71,2.07-.21,1.03-.1,1.91,0,2.91.04.63,0,1.38.32,1.91-.07.11,0,.12-.02.24.11.1.16.25.27.32.51.37,1.43.78,2.01,1.06.34.18.69.3.89.43.62.11,1.28.14,1.71.02Z" fill="#222222"></path><path class="cls-1" d="m167.41,123.27c-.6-.05-.98-.14-1.46-.17-.81-.42-1.71-.27-2.19-1.02-.08-.04-.06-.01-.18-.03.02-.09.02-.12,0-.18-.5-.42-.76-1.04-1.22-1.52.07-.23-.16-.45-.23-.74-.12-.54-.03-1.22-.36-1.55.05-.6-.22-1.16-.28-1.66-.18-.18-.02-.58-.3-.69.16-.24-.19-.49-.16-.82-.52.03-1.24.17-1.85-.02-.26,1.47-.56,3.33-.79,4.99,0,.18.09.35.09.5,0,.64-.73.51-1.12.47-.06-.01-.02.09-.07.08-.16-.12-.33,0-.46.01-.06.02-.02-.06-.05-.07-.18-.03-.4.05-.67,0-.27-.02-.54-.06-.79-.14-.06.02-.05.11-.11.1-.48-.21-.76-.01-1.2-.06-.19-.28.12-.52-.05-.74.03-.18.09-.35.01-.42.47-1.44.62-2.83.88-4.31.04-.21.01-.42.05-.63.09-.5.28-.92.44-1.44.01-.06-.07-.13-.06-.19.07-.2.21-.36.22-.57.02-.09-.08-.07-.1-.11.04-.05.06-.02.13-.04.57-2.54,1.03-5.52,1.25-8.3,0-.21-.04-.43,0-.67.03-.36.25-.72.19-1.06.14-.28.14-.64.23-.93.01-.06-.05-.04-.08-.04.03-.18.08-.26.17-.43.66.21,1.24.04,1.94.16,0,.03-.04.02-.04.05.85.18,1.6.22,2.36.39.26.05.59-.08.88-.03.09.02.23.1.35.06.53-.06,1.05.06,1.67.14.81.08,1.57.25,2.35.6.58.16,1.32.42,1.67.84.4.13.75.38,1,.54.02.04.04-.05.04-.05.16.12.27.35.52.33.1.32.6.38.65.78.08.05.14.09.23.1-.03.33.35.79.32,1.12.37.85.09,2.08.13,2.85-.11.13-.11.1,0,.18-.07.59.02,1.46-.44,1.99-.05.81-.54,1.48-1.19,1.94-.16.4-.34.55-.52.88-.45.13-.67.55-1.04.76-.5-.09-.86.21-1.26.29-.6.11-1.22.03-1.89.06.3.54.67,1.18.61,1.9.09.17.08.26.13.48.08.04.12.33.3.39-.03.02-.04.05-.07.05.43.5.42,1.26.68,1.85.29.6.89.61,1.77.8.16.12.28.29.48.21.04.1.12.17.16.27-.17.46-.51.82-.73,1.21-.01.06,0,.15-.04.21-.09.14-.22.23-.28.4-.12.31.02.73-.3.83-.08-.05-.26-.08-.3-.17Zm-10.82-2.49c-.09.01-.23-.04-.25.05.09-.01.21.04.25-.05Zm4.94-9.96c.73.16,1.73.37,2.72.42.78.08,1.36-.12,1.97-.32.44-.59.87-1.3,1.08-2.15.25-.93.49-2.43-.6-2.96-.34-.15-.74-.28-1.09-.37-.31-.12-.56-.1-.77-.13-.15-.03-.28-.14-.42-.2-1.22-.31-2.58-.52-3.83-.46.24.86.44,1.99.29,3.02-.08.47.02,1.07-.14,1.49.25.5.06,1.01.17,1.61.2.07.41.07.63.05Z" fill="#222222"></path><path class="cls-1" d="m173.66,123.12c.06-.06,0-.21.1-.42-.08-.56.01-1.14.02-1.68.02-.84-.04-1.64.05-2.42.14-.99-.11-2,.05-3.02-.06,0,0-.15-.1-.12.03-.06.08-.12.08-.18.04-.39,0-.93-.03-1.37,0-.66.03-1.32-.11-1.97.04-1.05,0-2.09-.1-3.02-.01-.3-.09-.62-.12-.8-.21-1.31-.23-2.68-.38-3.93,0-.15-.07-.21-.02-.42-.07-.33-.03-.72-.25-.95.5-.29,1.15-.47,1.7-.16.6-.03,1.07-.08,1.48-.24.39.07.75-.03,1.13-.05.75,0,1.5.15,2.31.08.92-.1,1.97,0,3.02.02.63-.03,1.25-.11,1.76-.01.09,0,.15.08.21.08l2.13.18c.51.07.76.36,1.22.49.03.09.22.23.43.25,0,.06-.03.06-.03.09.24,0,.25.26.52.22v.15c.62.3,1.03.91,1.68,1.36,0,.15.26.53.39.73.16.2.35.4.44.61.2.38.37,1.06.48,1.48.04.21.11.5.18.68.1.18.28.32.38.49,0,0,.1.32.11.44.18.74.13,1.67.34,2.29,0,.03-.03.06-.09.06.32.55.36,1.45.19,2.33,0,.09-.11.18-.11.27-.03.06.07.15.04.24-.05.24-.12.57-.24.76.11.53-.44,1.01-.42,1.51-.36.61-.54,1.37-.84,2.04-.37.34-.83.81-1.3,1.1-.17.13-.38.17-.43.44-.3.07-.4.35-.6.53-.5.08-.82.42-1.23.59-.06.03-.18.04-.27.07-.35.1-.73.33-1.12.44-.59.17-1.16.08-1.76.19-.09,0-.15.1-.23.1-.5.11-1.08-.04-1.64.13-.93-.08-2.57.05-3.58.21-.68.09-1.4.06-2.09.15-.83.1-1.66.37-2.45.07l-.71.12c-.12-.02-.13-.17-.22-.23Zm8.66-4.44c.27-.04.59-.14.86-.22.29-.1.71-.21.97-.34.09-.03.14-.16.23-.19.18-.07.39-.05.5-.14.06-.06,0-.09.02-.12.17-.1.56-.29.79-.39.5-.26,1.05-.7,1.42-1.08.35-.31.72-.66.97-1.03.03-.12-.04-.15-.07-.21.13-.45.54-.77.66-1.28.12-.63,0-1.35-.03-2.06-.04-.84-.08-1.91-.23-2.59-.04-.15-.16-.26-.2-.38-.07-.24-.08-.42-.2-.59-.03-.06-.18-.08-.25-.2-.03-.03.02-.15,0-.21-.1-.18-.43-.37-.61-.39,0-.06.03-.06.02-.12-1-.23-1.68-.86-2.79-.81-.51.05-.99-.05-1.47-.15-.12,0-.05.12-.17.1-.31-.23-.77.09-1.17.02-.18-.05-.34-.22-.55-.22-.33-.05-.75.06-1.1.11l-2.65.38c-.11,1.68.66,3.53.59,5.39-.06.03-.06.09-.11.12.14.38.13.89.21,1.34.04.3.27.65.07.89.14.44-.02,1.02.18,1.43-.05.96.06,2.24.07,3.14.09.06.07.24.19.23h-.12c1.38-.02,2.68-.2,3.96-.43Z" fill="#222222"></path></g></svg>