<?xml version="1.0" encoding="utf-8"?>
<svg width="100%" height="100%" viewBox="0 0 2084 1578" version="1.1" xmlns="http://www.w3.org/2000/svg" style="fill-rule:evenodd;clip-rule:evenodd;stroke-linejoin:round;stroke-miterlimit:2;">
  <rect id="DEF-LOGO" x="0" y="-178.113" width="2083.33" height="2008.63" style="fill:none;"/>
  <clipPath id="_clip1">
    <rect x="0" y="-178.113" width="2083.33" height="2008.63"/>
  </clipPath>
  <g clip-path="url(#_clip1)">
    <g>
      <g>
        <path d="M1790.14,718.932c-0,0 -50.136,23.355 -83.149,16.59c-19.681,-4.033 -47.318,-22.016 -56.582,-17.036c-10.657,5.73 -16.958,13.566 -18.399,15.403c-1.47,1.894 -3.25,4.183 -5.229,6.868c-1.978,2.685 -4.126,5.766 -6.415,9.186c-1.103,1.695 -2.318,3.476 -3.477,5.341c-0.593,0.933 -1.187,1.894 -1.808,2.855c-0.566,0.989 -1.159,1.978 -1.781,2.996c-1.215,1.978 -3.813,7.43 -5.056,9.578c-1.187,2.148 -0.936,1.02 -2.123,3.281c-1.13,2.289 -2.345,4.579 -3.448,6.953c-0.565,1.187 -1.13,2.402 -1.695,3.589c-0.537,1.215 -1.074,2.431 -1.611,3.674c-1.103,2.431 -2.035,4.946 -3.053,7.462c-0.509,1.243 -0.933,2.515 -1.413,3.787l-1.385,3.815l-1.215,3.872c-0.396,1.3 -0.848,2.572 -1.187,3.872c-0.678,2.6 -7.038,0.707 -6.19,-1.95c0.396,-1.328 0.905,-2.628 1.385,-3.957l1.47,-3.928l1.583,-3.872c0.537,-1.3 1.045,-2.6 1.639,-3.844c1.159,-2.543 2.233,-5.059 3.476,-7.518c0.622,-1.243 1.215,-2.459 1.809,-3.674c0.65,-1.187 1.272,-2.402 1.894,-3.589c1.243,-2.374 2.571,-4.664 3.843,-6.925c1.329,-2.261 2.629,-4.465 3.957,-6.585c1.328,-2.119 2.6,-4.211 3.957,-6.189c0.65,-0.99 1.3,-1.95 1.95,-2.911c0.65,-0.961 1.3,-1.894 1.95,-2.827c1.244,-1.837 2.544,-3.589 3.759,-5.257c2.459,-3.335 4.776,-6.359 6.896,-8.987c2.12,-2.628 4.042,-4.861 5.596,-6.698c1.357,-1.555 2.487,-2.798 3.335,-3.731c0,-0 -2.713,-15.516 -6.953,-20.519c-7.32,-8.676 -42.902,3.166 -80.577,-6.274c-37.674,-9.412 -62.686,-68.254 -62.686,-68.254c-0,-0 29.11,-0 64.354,-1.527c45.22,-1.922 74.218,55.056 81.284,71.901c4.211,10.061 6.076,17.494 6.924,21.847c2.487,-2.77 8.039,-6.01 14.668,-12.068c11.065,-10.113 39.159,-43.335 85.578,-29.649c34.582,10.197 54.125,34.899 54.125,34.899Z" style="fill:#055b49;fill-rule:nonzero;"/>
        <path d="M139.561,1371.02c0,0 -288.336,-13.905 -36.119,66.587c64.099,20.575 483.377,98.128 483.377,98.128c-0,0 1.78,41.97 20.942,41.97l872.046,0c19.219,0 20.971,-41.97 20.971,-41.97c0,0 418.091,-81.679 483.377,-98.128c242.551,-61.302 -36.091,-66.587 -36.091,-66.587l-1808.5,0" style="fill-rule: nonzero; fill: rgb(6, 91, 73);"/>
        <path d="M911.359,158.299c-93.832,91.232 -103.95,143.886 -93.238,175.653c14.244,42.253 66.898,52.625 69.385,97.591c2.176,39.031 -36.261,52.173 -39.031,93.239c-1.639,24.532 9.355,60.85 71.137,108.416c-16.138,-24.278 -35.837,-62.687 -27.754,-104.064c9.242,-47.481 46.351,-54.349 49.884,-93.266c5.115,-56.893 -70.657,-77.808 -82.414,-145.271c-4.72,-27.047 -0.65,-70.317 52.031,-132.298Z" style="fill-rule: nonzero; fill: rgb(6, 91, 73);"/>
        <path d="M1256.22,158.299c-78.146,68.198 -89.084,115.708 -84.477,146.599c5.568,37.363 33.35,46.521 35.809,89.508c2.854,49.658 -32.531,66.361 -39.936,118.421c-3.9,27.386 -0.48,67.435 34.424,120.371c-5.765,-27.359 -10.146,-68.481 4.438,-112.458c21.281,-64.128 63.506,-75.8 63.562,-122.151c0.057,-49.29 -47.707,-61.98 -56.977,-117.121c-8.027,-47.651 18.568,-92.249 43.157,-123.169Z" style="fill-rule: nonzero; fill: rgb(6, 91, 73);"/>
        <path d="M978.596,0c25.522,26.341 55.819,66.7 54.208,114.944c-2.43,72.89 -75.631,98.129 -69.385,160.476c6.162,61.5 80.464,67.407 84.562,130.093c3.646,55.791 -52.003,78.034 -47.707,136.622c2.911,39.596 31.569,70.374 57.091,91.063c-12.125,-20.491 -26.454,-52.258 -22.384,-88.886c8.62,-77.384 90.242,-99.824 86.738,-156.152c-3.335,-53.529 -80.492,-57.91 -88.915,-117.092c-8.507,-60.002 66.107,-88.915 62.885,-149.623c-1.555,-29.478 -21.762,-72.353 -117.093,-121.445Z" style="fill-rule: nonzero; fill: rgb(6, 91, 73);"/>
        <g>
          <g>
            <path d="M453.72,718.781l-0,191.169l-62.291,0l-0,-21.366c-9.214,16.279 -22.215,24.419 -39.003,24.419c-20.886,-0 -36.939,-6.925 -48.159,-20.802c-11.249,-13.933 -16.845,-33.491 -16.845,-58.673c0,-25.465 5.596,-45.107 16.845,-58.899c11.22,-13.793 27.273,-20.689 48.159,-20.689c17.099,0 30.1,8.027 39.003,24.08l-0,-59.239l62.291,0Zm-83.319,144.14c6.84,0 12.04,-2.515 15.601,-7.574c3.618,-5.116 5.427,-12.379 5.427,-21.819c-0,-19.897 -7.009,-29.845 -21.028,-29.845c-14.555,-0 -21.818,9.948 -21.818,29.845c-0,9.44 1.837,16.703 5.539,21.819c3.674,5.059 9.101,7.574 16.279,7.574Z" style="fill:#055b49;fill-rule:nonzero;"/>
          </g>
        </g>
        <g>
          <g>
            <path d="M641.415,833.528c-0,2.798 -0.283,5.737 -0.792,8.818c-0.452,3.024 -0.961,5.935 -1.469,8.705l-100.163,-0c3.843,10.485 10.457,15.714 19.897,15.714c7.376,-0 12.463,-3.561 15.261,-10.74l61.5,10.401c-5.596,14.781 -15.12,26.228 -28.602,34.367c-13.509,8.14 -29.817,12.21 -48.951,12.21c-26.539,-0 -47.001,-6.925 -61.386,-20.802c-14.414,-13.933 -21.593,-33.491 -21.593,-58.673c-0,-25.465 7.179,-45.107 21.593,-58.899c14.385,-13.793 34.847,-20.689 61.386,-20.689c26.511,0 47.029,6.896 61.5,20.689c14.527,13.792 21.819,33.434 21.819,58.899Zm-63.874,-14.131c-5.059,-13.029 -11.531,-19.558 -19.445,-19.558c-10.711,-0 -17.607,6.529 -20.688,19.558l40.133,-0Z" style="fill:#055b49;fill-rule:nonzero;"/>
          </g>
        </g>
        <g>
          <g>
            <path d="M821.089,753.94c19.134,0 33.859,6.077 44.203,18.201c10.316,12.153 15.488,29.139 15.488,50.986l0,86.823l-62.404,0l0,-65.004c0,-12.718 -1.667,-22.44 -4.974,-29.167c-3.335,-6.783 -8.14,-10.175 -14.471,-10.175c-11.248,0 -18.766,9.44 -22.61,28.263l0,76.083l-61.839,0l0,-152.957l61.839,-0l0,24.079c9.185,-17.551 24.108,-26.595 44.768,-27.132Z" style="fill:#055b49;fill-rule:nonzero;"/>
          </g>
        </g>
        <g>
          <g>
            <path d="M934.187,746.705c-9.892,-0 -17.495,-2.148 -22.836,-6.444c-5.37,-4.352 -8.027,-10.514 -8.027,-18.427c0,-7.829 2.657,-13.905 8.027,-18.201c5.341,-4.353 12.944,-6.557 22.836,-6.557c9.948,-0 17.664,2.204 23.175,6.557c5.483,4.296 8.253,10.372 8.253,18.201c0,7.913 -2.77,14.075 -8.253,18.427c-5.511,4.296 -13.227,6.444 -23.175,6.444Zm31.428,10.288l0,152.957l-62.291,0l0,-152.957l62.291,-0Z" style="fill:#055b49;fill-rule:nonzero;"/>
          </g>
        </g>
        <g>
          <g>
            <path d="M1153.28,833.528c-0,2.798 -0.283,5.737 -0.791,8.818c-0.453,3.024 -0.961,5.935 -1.47,8.705l-100.163,-0c3.844,10.485 10.457,15.714 19.897,15.714c7.376,-0 12.464,-3.561 15.262,-10.74l61.499,10.401c-5.596,14.781 -15.12,26.228 -28.602,34.367c-13.509,8.14 -29.817,12.21 -48.951,12.21c-26.538,-0 -47,-6.925 -61.386,-20.802c-14.414,-13.933 -21.593,-33.491 -21.593,-58.673c0,-25.465 7.179,-45.107 21.593,-58.899c14.386,-13.793 34.848,-20.689 61.386,-20.689c26.511,0 47.03,6.896 61.5,20.689c14.527,13.792 21.819,33.434 21.819,58.899Zm-63.874,-14.131c-5.059,-13.029 -11.531,-19.558 -19.445,-19.558c-10.711,-0 -17.607,6.529 -20.688,19.558l40.133,-0Z" style="fill:#055b49;fill-rule:nonzero;"/>
          </g>
        </g>
        <g>
          <g>
            <path d="M1338.66,756.993l-0,152.957l-62.291,0l-0,-24.419c-8.903,17.806 -23.826,26.935 -44.768,27.472c-18.852,-0 -33.435,-6.02 -43.751,-18.088c-10.344,-12.125 -15.488,-29.281 -15.488,-51.439l-0,-86.483l61.952,-0l-0,65.004c-0,12.52 1.696,22.158 5.087,28.941c3.448,6.726 8.394,10.061 14.81,10.061c10.909,0 18.314,-9.411 22.158,-28.262l-0,-75.744l62.291,-0Z" style="fill:#055b49;fill-rule:nonzero;"/>
          </g>
        </g>
        <g>
          <g>
            <path d="M1618.81,747.281l-5.937,12.413l-55.86,150.256l-49.743,0l-23.288,-76.874l-24.08,76.874l-49.29,0l-56.978,-152.957l56.187,-0l25.549,75.405l26.454,-75.405l43.864,-0l26.454,75.405l25.21,-75.405l46.626,-0c5.93,0.067 10.52,-4.649 14.832,-9.712Z" style="fill:#055b49;fill-rule:nonzero;"/>
          </g>
        </g>
        <path d="M1790.14,833.528c-0,2.798 -0.283,5.737 -0.792,8.818c-0.452,3.024 -0.96,5.935 -1.469,8.705l-100.163,-0c3.844,10.485 10.457,15.714 19.897,15.714c7.376,-0 12.464,-3.561 15.262,-10.74l61.499,10.401c-5.596,14.781 -15.12,26.228 -28.602,34.367c-13.509,8.14 -29.817,12.21 -48.951,12.21c-26.538,-0 -47.001,-6.925 -61.386,-20.802c-14.414,-13.933 -21.593,-33.491 -21.593,-58.673c0,-25.465 7.179,-45.107 21.593,-58.899c14.385,-13.793 34.848,-20.689 61.386,-20.689c26.511,0 47.03,6.896 61.5,20.689c14.527,13.792 21.819,33.434 21.819,58.899Zm-63.874,-14.131c-5.059,-13.029 -11.531,-19.558 -19.445,-19.558c-10.711,-0 -17.607,6.529 -20.688,19.558l40.133,-0Z" style="fill:#055b49;"/>
        <g>
          <g>
            <path d="M556.156,1294.01l-107.963,0l-0,-133.174l-53.021,97.45l-42.394,0l-53.586,-97.45l-0,133.174l-107.399,0l0,-331.239l96.094,0l86.144,172.855l86.145,-172.855l95.98,0l0,331.239Z" style="fill:#055b49;fill-rule:nonzero;"/>
          </g>
        </g>
        <g>
          <g>
            <path d="M706.57,1045.53l-0,43.073l146.401,-0l-0,79.588l-146.401,-0l-0,42.959l146.401,-0l-0,82.866l-253.8,0l0,-331.239l253.8,0l-0,82.753l-146.401,0Z" style="fill:#055b49;fill-rule:nonzero;"/>
          </g>
        </g>
        <g>
          <g>
            <path d="M896.591,1294.01l-0,-331.917l90.779,-0l89.424,153.749l-0,-153.071l107.963,0l0,331.239l-90.667,-0.678l-90.101,-153.071l-0,153.749l-107.398,0Z" style="fill:#055b49;fill-rule:nonzero;"/>
          </g>
        </g>
        <g>
          <g>
            <path d="M1374.19,1298.65c49.064,0.452 86.823,-8.139 113.277,-25.775c26.51,-17.693 39.794,-43.101 39.794,-76.197c-0,-18.596 -4.974,-34.084 -14.923,-46.463c-9.948,-12.351 -22.666,-22.498 -38.098,-30.411c-15.46,-7.97 -32.05,-14.499 -49.742,-19.558c-17.636,-5.031 -34.198,-9.327 -49.63,-12.888c-15.459,-3.533 -28.149,-7.178 -38.098,-10.966c-9.892,-3.759 -14.809,-8.507 -14.809,-14.244c-0,-14.527 16.759,-21.819 50.307,-21.819c30.891,0 50.534,13.453 58.9,40.359l87.501,-23.853c-8.818,-31.796 -25.945,-56.3 -51.325,-73.484c-25.408,-17.24 -57.091,-25.888 -95.076,-25.888c-49.064,-0 -86.879,8.874 -113.39,26.567c-26.454,17.636 -39.681,42.818 -39.681,75.518c0,18.54 4.975,33.887 14.923,46.011c9.949,12.153 22.752,22.102 38.437,29.846c15.658,7.687 32.22,13.99 49.63,18.879c17.466,4.833 34.056,9.016 49.742,12.549c15.658,3.561 28.489,7.32 38.437,11.305c9.949,3.929 14.923,9.214 14.923,15.827c0,6.642 -4.465,11.729 -13.34,15.262c-8.818,3.561 -21.423,5.313 -37.759,5.313c-30.467,0 -49.855,-12.803 -58.221,-38.437l-88.18,23.854c9.27,31.824 26.595,56.356 52.004,73.596c25.38,17.184 56.864,25.549 94.397,25.097Z" style="fill:#055b49;fill-rule:nonzero;"/>
          </g>
        </g>
        <g>
          <g>
            <path d="M1781.66,1245.63l-111.355,0l-17.862,48.386l-104.007,0l123.904,-331.239l108.642,0l122.547,331.239l-104.685,0l-17.184,-48.386Zm-29.167,-79.474l-25.889,-90.78l-27.132,90.78l53.021,-0Z" style="fill:#055b49;fill-rule:nonzero;"/>
          </g>
        </g>
      </g>
    </g>
  </g>
</svg>